<svg width="16" height="16" viewBox="0 0 16 16" fill="none" xmlns="http://www.w3.org/2000/svg">
<path fill-rule="evenodd" clip-rule="evenodd" d="M8.00004 14C11.3137 14 14 11.3137 14 8.00001C14 4.6863 11.3137 2.00001 8.00004 2.00001C4.68633 2.00001 2.00004 4.6863 2.00004 8.00001C2.00004 11.3137 4.68633 14 8.00004 14ZM8.00004 14.6667C11.6819 14.6667 14.6667 11.6819 14.6667 8.00001C14.6667 4.31811 11.6819 1.33334 8.00004 1.33334C4.31814 1.33334 1.33337 4.31811 1.33337 8.00001C1.33337 11.6819 4.31814 14.6667 8.00004 14.6667Z" fill="#F93737"/>
<path d="M7.6335 9.66833L7.0995 4.32838C7.04623 3.79563 7.46459 3.33334 8 3.33334C8.53541 3.33334 8.95377 3.79563 8.9005 4.32838L8.3665 9.66833C8.34767 9.85662 8.18923 10 8 10C7.81077 10 7.65233 9.85662 7.6335 9.66833Z" fill="#F93737"/>
<circle cx="8.00004" cy="11.3334" r="0.666667" fill="#F93737"/>
</svg>
