<svg width="40" height="31" viewBox="0 0 40 31" fill="none" xmlns="http://www.w3.org/2000/svg">
<path fill-rule="evenodd" clip-rule="evenodd" d="M39.7827 3.55435C39.7827 1.75943 38.3276 0.304352 36.5327 0.304352H4.03271C2.23779 0.304352 0.782715 1.75943 0.782715 3.55435V27.3877C0.782715 29.1826 2.23779 30.6377 4.03271 30.6377H36.5327C38.3276 30.6377 39.7827 29.1826 39.7827 27.3877V3.55435ZM36.5327 2.47102C37.131 2.47102 37.616 2.95604 37.616 3.55435V27.3877C37.616 27.986 37.131 28.471 36.5327 28.471H4.03271C3.43441 28.471 2.94938 27.986 2.94938 27.3877V3.55435C2.94938 2.95604 3.43441 2.47102 4.03271 2.47102H36.5327Z" fill="#DADEE4"/>
<path fill-rule="evenodd" clip-rule="evenodd" d="M27.8301 11.0722C27.3597 10.73 26.7031 10.8205 26.3426 11.277L11.3832 30.2256L9.68262 28.8831L24.6421 9.93444C25.7233 8.56481 27.6932 8.29353 29.1045 9.31989L39.3368 16.7615L38.0624 18.5138L27.8301 11.0722Z" fill="#DADEE4"/>
<path fill-rule="evenodd" clip-rule="evenodd" d="M12.7423 16.7366C12.2534 16.3292 11.5203 16.4289 11.158 16.9522L2.75651 29.0877L0.975098 27.8544L9.37659 15.7189C10.4633 14.1492 12.6626 13.8499 14.1293 15.0721L18.8093 18.9721L17.4223 20.6366L12.7423 16.7366Z" fill="#DADEE4"/>
<path fill-rule="evenodd" clip-rule="evenodd" d="M15.9492 10.0543C16.5475 10.0543 17.0326 9.56932 17.0326 8.97101C17.0326 8.3727 16.5475 7.88768 15.9492 7.88768C15.3509 7.88768 14.8659 8.3727 14.8659 8.97101C14.8659 9.56932 15.3509 10.0543 15.9492 10.0543ZM15.9492 12.221C17.7441 12.221 19.1992 10.7659 19.1992 8.97101C19.1992 7.17608 17.7441 5.72101 15.9492 5.72101C14.1543 5.72101 12.6992 7.17608 12.6992 8.97101C12.6992 10.7659 14.1543 12.221 15.9492 12.221Z" fill="#DADEE4"/>
</svg>
