<svg width="19" height="18" viewBox="0 0 19 18" fill="none" xmlns="http://www.w3.org/2000/svg">
<path d="M0.90918 3C0.90918 1.34315 2.25233 0 3.90918 0H15.9092C17.566 0 18.9092 1.34315 18.9092 3V15C18.9092 16.6569 17.566 18 15.9092 18H3.90918C2.25233 18 0.90918 16.6569 0.90918 15V3Z" fill="white"/>
<path fill-rule="evenodd" clip-rule="evenodd" d="M15.9092 1H3.90918C2.80461 1 1.90918 1.89543 1.90918 3V15C1.90918 16.1046 2.80461 17 3.90918 17H15.9092C17.0137 17 17.9092 16.1046 17.9092 15V3C17.9092 1.89543 17.0137 1 15.9092 1ZM3.90918 0C2.25233 0 0.90918 1.34315 0.90918 3V15C0.90918 16.6569 2.25233 18 3.90918 18H15.9092C17.566 18 18.9092 16.6569 18.9092 15V3C18.9092 1.34315 17.566 0 15.9092 0H3.90918Z" fill="#D8DEE5"/>
</svg>
