<svg width="12" height="12" viewBox="0 0 12 12" fill="none" xmlns="http://www.w3.org/2000/svg">
<path d="M5.52778 1.03106C5.68343 0.583278 6.3167 0.583277 6.47235 1.03106L7.5088 4.01279C7.57746 4.21033 7.76181 4.34426 7.97089 4.34853L11.127 4.41284C11.6009 4.4225 11.7966 5.02477 11.4189 5.31117L8.90334 7.21831C8.73669 7.34465 8.66628 7.56136 8.72684 7.76153L9.64095 10.783C9.77823 11.2368 9.2659 11.609 8.87678 11.3382L6.28566 9.53515C6.114 9.4157 5.88613 9.4157 5.71448 9.53515L3.12335 11.3382C2.73423 11.609 2.2219 11.2368 2.35918 10.783L3.27329 7.76153C3.33385 7.56136 3.26344 7.34465 3.09679 7.21831L0.581272 5.31117C0.203506 5.02477 0.399195 4.4225 0.873157 4.41284L4.02924 4.34853C4.23832 4.34426 4.42267 4.21033 4.49133 4.01279L5.52778 1.03106Z" fill="#F93737"/>
</svg>
