<svg width="12" height="12" viewBox="0 0 12 12" fill="none" xmlns="http://www.w3.org/2000/svg">
<path d="M3.66659 5.41666V5.91666H3.98502L4.11968 5.6281L3.66659 5.41666ZM5.62186 1.22679L6.07495 1.43823L5.62186 1.22679ZM7.37492 4.44166V2.00402H6.37492V4.44166H7.37492ZM5.16877 1.01535L3.21349 5.20521L4.11968 5.6281L6.07495 1.43823L5.16877 1.01535ZM0.833252 6.87499V9.16666H1.83325V6.87499H0.833252ZM2.83325 11.1667H8.97841V10.1667H2.83325V11.1667ZM10.4469 9.97253L11.1807 6.44949L10.2017 6.24557L9.46791 9.76861L10.4469 9.97253ZM9.22274 4.04166H6.97492V5.04166H9.22274V4.04166ZM3.66659 4.91666H2.79159V5.91666H3.66659V4.91666ZM11.1807 6.44949C11.4394 5.20755 10.4913 4.04166 9.22274 4.04166V5.04166C9.85703 5.04166 10.3311 5.6246 10.2017 6.24557L11.1807 6.44949ZM8.97841 11.1667C9.68895 11.1667 10.302 10.6681 10.4469 9.97253L9.46791 9.76861C9.41961 10.0005 9.21526 10.1667 8.97841 10.1667V11.1667ZM1.83325 6.87499C1.83325 6.34572 2.26231 5.91666 2.79159 5.91666V4.91666C1.71003 4.91666 0.833252 5.79343 0.833252 6.87499H1.83325ZM5.91255 0.541656C5.59365 0.541656 5.30362 0.726367 5.16877 1.01535L6.07495 1.43823C6.0455 1.50133 5.98218 1.54166 5.91255 1.54166V0.541656ZM7.37492 2.00402C7.37492 1.19638 6.72019 0.541656 5.91255 0.541656V1.54166C6.16791 1.54166 6.37492 1.74867 6.37492 2.00402H7.37492ZM0.833252 9.16666C0.833252 10.2712 1.72868 11.1667 2.83325 11.1667V10.1667C2.28097 10.1667 1.83325 9.71894 1.83325 9.16666H0.833252ZM6.37492 4.44166C6.37492 4.77303 6.64355 5.04166 6.97492 5.04166V4.04166C7.19583 4.04166 7.37492 4.22074 7.37492 4.44166H6.37492Z" fill="#AEAEAE"/>
<path d="M3.6665 5.125L3.6665 10.6667" stroke="#AEAEAE"/>
</svg>
